# xmcd
# 
# Track frame offsets:
#     150
#     15999
#     35980
#     50405
#     64223
#     81438
#     96261
#     112628
#     125544
#     140398
#     155285
#     170288
#     185749
#     200086
#     213226
#     225660
#     236964
#     252153
#     266688
#     280079
#     299655
# 
# Disc length: 4202
# 
# Revision: 1
# Processed by: cddbd v1.5.2PL0 Copyright (c) Steve Scherf et al.
# Submitted via: Hanso Converter v1.4.0
# 
DISCID=39106815
DTITLE=João Neto e Frederico - Vale a Pena Sonhar
DYEAR=2010
DGENRE=Sertanejo
TTITLE0=Pense em Mim
TTITLE1=Revelação
TTITLE2=Não vou mais chorar
TTITLE3=Tô sofrendo por paixão
TTITLE4=História de novela
TTITLE5=Tem que ser agora
TTITLE6=Marmiteiro
TTITLE7=Sai pra lá
TTITLE8=Mata minha sede
TTITLE9=Ligaçao fora de area
TTITLE10=Chama eu
TTITLE11=A sua vista
TTITLE12=Mania doida
TTITLE13=Destino
TTITLE14=Os atros me revelam
TTITLE15=Ingrata
TTITLE16=Quero amor pra vida inteira
TTITLE17=Bitoca nas meninas
TTITLE18=Pega a senha
TTITLE19=Vale a pena sonhar
TTITLE20=Delegada
EXTD=
EXTT0=
EXTT1=
EXTT2=
EXTT3=
EXTT4=
EXTT5=
EXTT6=
EXTT7=
EXTT8=
EXTT9=
EXTT10=
EXTT11=
EXTT12=
EXTT13=
EXTT14=
EXTT15=
EXTT16=
EXTT17=
EXTT18=
EXTT19=
EXTT20=
PLAYORDER=
